<svg fill="none" height="24" viewBox="0 0 24 24" width="24" xmlns="http://www.w3.org/2000/svg"><path d="m21.32 0h-18.64c-1.48012 0-2.68 1.19988-2.68 2.68v18.64c0 1.4801 1.19988 2.68 2.68 2.68h18.64c1.4801 0 2.68-1.1999 2.68-2.68v-18.64c0-1.48012-1.1999-2.68-2.68-2.68z" fill="#cdcccc"/><path d="m12.82 10.5h-1.65c-.37 0-.67.3-.67.67v9.16c0 .37.3.67.67.67h1.65c.37 0 .67-.3.67-.67v-9.16c0-.37-.3-.67-.67-.67z" fill="#fff"/><g fill="#b3b3b3"><path d="m6.83001 16.5h-1.65c-.37003 0-.67.3-.67.67v3.16c0 .37.29997.67.67.67h1.65c.37003 0 .67-.3.67-.67v-3.16c0-.37-.29997-.67-.67-.67z"/><path d="m18.83 3h-1.65c-.37 0-.67.29997-.67.67v16.66c0 .37.3.67.67.67h1.65c.37 0 .67-.3.67-.67v-16.66c0-.37003-.3-.67-.67-.67z"/></g></svg>
