<svg fill="none" height="24" viewBox="0 0 25 24" width="25" xmlns="http://www.w3.org/2000/svg"><path d="m18.6703 22.2203c-.491-.0053-.9685-.1617-1.3675-.448s-.7002-.6885-.8625-1.152c0-.09 0-.18-.08-.18h-7.91998c0 .09 0 .18-.08.18-.13016.4655-.41063.8748-.79771 1.1642s-.85903.4426-1.34229.4358c-.23604 0-.46242.0938-.62932.2607-.16691.1669-.26068.3933-.26068.6293 0 .2361.09377.4624.26068.6293.1669.1669.39328.2607.62932.2607h12.44998c.2361 0 .4624-.0938.6293-.2607.167-.1669.2607-.3932.2607-.6293 0-.236-.0937-.4624-.2607-.6293-.1669-.1669-.3932-.2607-.6293-.2607z" fill="#000" opacity=".3"/><g fill="#cdcccc"><path d="m14.2203 11.5603h1.78c.2361 0 .4624-.0938.6293-.2607.167-.1669.2607-.3933.2607-.6293s-.0937-.4624-.2607-.6293c-.1669-.16693-.3932-.2607-.6293-.2607h-1.78c-.236 0-.4624.09377-.6293.2607-.1669.1669-.2607.3933-.2607.6293s.0938.4624.2607.6293.3933.2607.6293.2607z"/><path d="m22.2203.00030894h-19.54999c-.35212-.00539743-.70174.05997726-1.02812.19224606-.32637.132269-.62287.328738-.871881.577754-.249016.249011-.445485.545511-.577754.871881-.1322688.32638-.19764349.676-.19224606 1.02812v13.32999c-.00539743.3521.05997726.7017.19224606 1.0281.132269.3264.328738.6229.577754.8719.249011.249.545511.4455.871881.5778.32638.1322.676.1976 1.02812.1922h19.54999c.3521.0054.7017-.06 1.0281-.1922.3264-.1323.6229-.3288.8719-.5778s.4455-.5455.5778-.8719c.1322-.3264.1976-.676.1922-1.0281v-13.32999c.0054-.35212-.06-.70174-.1922-1.02812-.1323-.32637-.3288-.62287-.5778-.871881-.249-.249016-.5455-.445485-.8719-.577754-.3264-.1322688-.676-.19764349-1.0281-.19224606zm-2.66 12.43999106c0 .2338-.046.4652-.1355.6812-.0894.2159-.2206.4122-.3858.5775-.1653.1652-.3616.2964-.5775.3858-.216.0895-.4474.1355-.6812.1355h-10.66999c-.47209 0-.92484-.1875-1.25865-.5213-.33382-.3339-.52135-.7866-.52135-1.2587v-3.54999h14.22999zm0-5.32999h-14.22999v-.89c0-.47209.18753-.92484.52135-1.25865.33381-.33382.78656-.52135 1.25865-.52135h10.66999c.2338 0 .4652.04604.6812.13549.2159.08946.4122.22057.5775.38586.1652.16529.2964.36151.3858.57747.0895.21596.1355.44743.1355.68118z"/></g></svg>
